# AST/ASF file generated using VICON BodyLanguage
# -----------------------------------------------
:version 1.10
:name VICON
:units
  mass 1.0
  length 0.45
  angle deg
:documentation
   .ast/.asf automatically generated from VICON data using
   VICON BodyBuilder and BodyLanguage model FoxedUp or BRILLIANT.MOD
:root
   order TX TY TZ RX RY RZ
   axis XYZ
   position 0 0 0  
   orientation 0 0 0 
:bonedata
  begin
     id 1 
     name lhipjoint
     direction 0.560651 -0.75055 0.34978 
     length 2.44936 
     axis 0 0 0  XYZ
  end
  begin
     id 2 
     name lfemur
     direction 0.34202 -0.939693 0  
     length 7.42139  
     axis 0 0 20  XYZ
    dof rx ry rz
    limits (-160.0 20.0)
           (-70.0 70.0)
           (-60.0 70.0)
  end
  begin
     id 3 
     name ltibia
     direction 0.34202 -0.939693 0   
     length 7.75674   
     axis 0 0 20   XYZ
    dof rx
    limits (-10.0 170.0)
  end
  begin
     id 4 
     name lfoot
     direction 0.0925879 -0.254383 0.962661   
     length 2.38688   
     axis -90 7.62852e-016 20   XYZ
    dof rx rz
    limits (-45.0 90.0)
           (-70.0 20.0)
  end
  begin
     id 5 
     name ltoes
     direction 1.53567e-011 -4.21973e-011 1   
     length 1.19228   
     axis -90 7.62852e-016 20   XYZ
    dof rx
    limits (-90.0 20.0)
  end
  begin
     id 6 
     name rhipjoint
     direction -0.540087 -0.762838 0.355506   
     length 2.4099  
     axis 0 0 0  XYZ 
  end
  begin
     id 7 
     name rfemur
     direction -0.34202 -0.939693 0   
     length 7.70794   
     axis 0 0 -20   XYZ
    dof rx ry rz
    limits (-160.0 20.0)
           (-70.0 70.0)
           (-70.0 60.0)
  end
  begin
     id 8 
     name rtibia
     direction -0.34202 -0.939693 0   
     length 7.66106   
     axis 0 0 -20   XYZ
    dof rx
    limits (-10.0 170.0)
 end
 begin
     id 9 
     name rfoot
     direction -0.0830975 -0.228308 0.970036   
     length 2.4989  
     axis -90 -7.62852e-016 -20   XYZ
    dof rx rz
    limits (-45.0 90.0)
           (-20.0 70.0)
  end
  begin
     id 10 
     name rtoes
     direction -1.53517e-011 -4.21842e-011 1   
     length 1.2498   
     axis -90 -7.62852e-016 -20   XYZ
    dof rx
    limits (-90.0 20.0)
  end
  begin
     id 11 
     name lowerback
     direction 0.0266356 0.99402 -0.105896   
     length 2.1545   
     axis 0 0 0   XYZ
    dof rx ry rz
    limits (-20.0 45.0)
           (-30.0 30.0)
           (-30.0 30.0)
  end
  begin
     id 12 
     name upperback
     direction 0.0130547 0.999192 0.0380027   
     length 2.1434   
     axis 0 0 0   XYZ
    dof rx ry rz
    limits (-20.0 45.0)
           (-30.0 30.0)
           (-30.0 30.0)
  end
  begin
     id 13 
     name thorax
     direction 0.000590299 0.996288 0.0860764   
     length 2.19049   
     axis 0 0 0   XYZ
    dof rx ry rz
    limits (-20.0 45.0)
           (-30.0 30.0)
           (-30.0 30.0)
  end
  begin
     id 14 
     name lowerneck
     direction -0.0432125 0.978219 0.203028   
     length 1.62441   
     axis 0 0 0   XYZ
    dof rx ry rz
    limits (-20.0 45.0)
           (-30.0 30.0)
           (-30.0 30.0)
  end
  begin
     id 15 
     name upperneck
     direction -0.0192309 0.991699 -0.127138   
     length 1.66666   
     axis 0 0 0   XYZ
    dof rx ry rz
    limits (-20.0 45.0)
           (-30.0 30.0)
           (-30.0 30.0)
  end
  begin
     id 16
     name head
     direction -0.00434499 0.997882 -0.0649107  
     length 1.67142  
     axis 0 0 0   XYZ
    dof rx ry rz
    limits (-20.0 45.0)
           (-30.0 30.0)
           (-30.0 30.0)
  end
  begin
     id 17 
     name lclavicle
     direction 0.970351 0.240904 -0.0196058  
     length 4.04862  
     axis 0 0 0   XYZ
    dof ry rz
    limits (-20.0 10.0)
           (0.0 20.0)
  end
  begin
     id 18 
     name lhumerus
     direction 1 -4.4896e-011 -1.40911e-018   
     length 5.58345   
     axis 180 -30 -90   XYZ
    dof rx ry rz
    limits (-60.0 90.0)
           (-90.0 90.0)
           (-90.0 90.0)
  end
  begin
     id 19
     name lradius
     direction 1 -4.48968e-011 5.88912e-028   
     length 3.71087   
     axis 180 -30 -90   XYZ
    dof rx
    limits (-10.0 170.0)
  end
  begin
     id 20
     name lwrist
     direction 1 -4.48955e-011 -8.83775e-028   
     length 1.85544   
     axis 5.52448e-016 90 90   XYZ
    dof ry
    limits (-180.0 0.0)
 end
  begin
     id 21 
     name lhand
     direction 1 -4.49035e-011 -1.76755e-027   
     length 0.562322   
     axis 1.12785e-015 90 90   XYZ
    dof rx rz
    limits (-90.0 90.0)
           (-45.0 45.0)
  end
  begin
     id 22 
     name lfingers
     direction 1 -4.48824e-011 -3.5351e-027   
     length 0.453359   
     axis 2.2557e-015 90 90   XYZ
    dof rx
    limits (0.0 90.0)
  end
  begin
     id 23
     name lthumb
     direction 0.707107 -6.34888e-011 0.707107   
     length 0.650935   
     axis -90 45 2.85299e-015   XYZ
    dof rx rz
    limits (-45.0 45.0)
           (-45.0 45.0)
  end
  begin
     id 24 
     name rclavicle
     direction -0.96165 0.268562 -0.0557131   
     length 4.05446  
     axis 0 0 0   XYZ 
    dof ry rz
    limits (-10.0 20.0)
           (-20.0 0.0)
  end
  begin
     id 25 
     name rhumerus
     direction -1 -4.48957e-011 -3.36329e-027  
     length 5.20357   
     axis 180 30 90   XYZ
    dof rx ry rz
    limits (-90.0 60.0)
           (-90.0 90.0)
           (-90.0 90.0)
  end
  begin
     id 26 
     name rradius
     direction -1 -4.48974e-011 4.51441e-027   
     length 3.64937   
     axis 180 30 90   XYZ
    dof rx
    limits (-10.0 170.0)
  end
  begin
     id 27 
     name rwrist
     direction -1 -4.4896e-011 -8.83775e-028   
     length 1.82468   
     axis 5.52448e-016 -90 -90   XYZ
    dof ry
    limits (-180.0 0.0)
  end
  begin
     id 28
     name rhand
     direction -1 -4.48996e-011 -1.76755e-027   
     length 0.617996   
     axis 1.12785e-015 -90 -90   XYZ
    dof rx rz
    limits (-90.0 90.0)
           (-45.0 45.0)
  end
  begin
     id 29
     name rfingers
     direction -1 -4.48957e-011 -3.5351e-027   
     length 0.498244   
     axis 2.2557e-015 -90 -90   XYZ
    dof rx
    limits (0.0 90.0)
  end
  begin
     id 30
     name rthumb
     direction -0.707107 -6.34931e-011 0.707107   
     length 0.715382   
     axis -90 -45 -2.85299e-015   XYZ
    dof rx rz
    limits (-45.0 45.0)
           (-45.0 45.0)
  end
:hierarchy
  begin
    root lhipjoint rhipjoint lowerback
    lhipjoint lfemur
    lfemur ltibia
    ltibia lfoot
    lfoot ltoes
    rhipjoint rfemur
    rfemur rtibia
    rtibia rfoot
    rfoot rtoes
    lowerback upperback
    upperback thorax
    thorax lowerneck lclavicle rclavicle
    lowerneck upperneck
    upperneck head
    lclavicle lhumerus
    lhumerus lradius
    lradius lwrist
    lwrist lhand lthumb
    lhand lfingers
    rclavicle rhumerus
    rhumerus rradius
    rradius rwrist
    rwrist rhand rthumb
    rhand rfingers
  end

#!OML:ASF H:\ManfredETheater\Project 1\Capture day 2\Session 1\Male1.ASF
:FULLY-SPECIFIED
:DEGREES
117
root -3.36512 17.0888 16.7635 3.23345 16.7081 -7.25468
lowerback 12.2311 -1.60941 7.35808
upperback -0.361552 -0.699878 4.70521
thorax -7.31813 -0.508687 0.98957
lowerneck -25.9254 0.996819 -0.18427
upperneck 15.3402 3.00625 -7.21696
head 9.19043 0.536917 -2.03616
rclavicle 2.8625e-014 2.38542e-014
rhumerus -52.8186 2.17575 -84.4403
rradius 90.2135
rwrist -2.05395
rhand -31.0825 10.3691
rfingers 7.12502
rthumb -4.3628 -19.566
lclavicle 2.8625e-014 2.38542e-014
lhumerus -42.5119 -15.887 100.266
lradius 97.3558
lwrist 18.7049
lhand -17.2402 -7.49184
lfingers 7.12502
lthumb 9.00355 22.296
rfemur -29.0412 1.46532 26.2612
rtibia 52.5395
rfoot -18.8519 -6.1495
rtoes -17.1233
lfemur -14.5191 2.9524 -8.55492
ltibia 85.0857
lfoot 1.12141 -7.14104
ltoes -1.75069
118
root -3.2744 17.0335 17.3019 3.62523 16.9484 -7.47541
lowerback 12.1197 -1.32327 7.51676
upperback -0.540973 -0.284387 4.82889
thorax -7.43416 -0.315084 0.958632
lowerneck -26.3141 0.778793 -0.457327
upperneck 15.5186 2.83023 -7.20382
head 9.30838 0.426729 -2.01887
rclavicle 3.26007e-014 -3.02153e-014
rhumerus -50.6223 2.74073 -84.224
rradius 89.0852
rwrist -0.858023
rhand -31.3646 10.1082
rfingers 7.12502
rthumb -4.63519 -19.8211
lclavicle 3.26007e-014 -3.02153e-014
lhumerus -43.3607 -14.8581 100.508
lradius 94.8226
lwrist 17.5732
lhand -18.0627 -7.80253
lfingers 7.12502
lthumb 8.20985 22.018
rfemur -27.7443 1.20254 26.8217
rtibia 53.1401
rfoot -20.5508 -6.46099
rtoes -18.1459
lfemur -18.5198 4.4924 -8.2169
ltibia 87.447
lfoot -0.616966 -6.84151
ltoes -2.62381
119
root -3.18075 16.9878 17.8447 3.62564 17.3066 -7.29623
lowerback 12.3181 -1.17418 7.19256
upperback -0.541823 -0.108804 4.85143
thorax -7.53859 -0.218844 1.13464
lowerneck -26.5447 0.688975 -0.532117
upperneck 15.527 2.73806 -7.18102
head 9.34506 0.37721 -2.01466
rclavicle -2.10712e-014 -1.03368e-014
rhumerus -48.5304 3.70631 -84.1987
rradius 88.4481
rwrist 0.32574
rhand -31.7009 9.2809
rfingers 7.12502
rthumb -4.95991 -20.6411
lclavicle -2.10712e-014 -1.03368e-014
lhumerus -44.4121 -13.722 100.586
lradius 92.8078
lwrist 16.449
lhand -18.7443 -8.22219
lfingers 7.12502
lthumb 7.55196 21.623
rfemur -25.7466 0.635089 26.9267
rtibia 53.5205
rfoot -22.4078 -6.34358
rtoes -17.9689
lfemur -21.8102 5.68466 -8.52765
ltibia 89.1317
lfoot -2.16878 -6.39451
ltoes -2.37059
120
root -3.08695 16.9494 18.3987 3.73948 17.5562 -7.01473
lowerback 12.3346 -0.961896 6.72731
upperback -0.566619 0.105324 4.81757
thorax -7.56529 -0.0986218 1.31797
lowerneck -26.5328 0.525389 -0.665835
upperneck 15.4275 2.53796 -7.09345
head 9.29691 0.289564 -1.99174
rclavicle -3.37934e-014 5.00937e-014
rhumerus -46.7444 4.49413 -84.2177
rradius 88.3925
rwrist 1.60794
rhand -31.9009 9.10815
rfingers 7.12502
rthumb -5.15301 -20.8092
lclavicle -3.37934e-014 5.00937e-014
lhumerus -45.8574 -12.7491 100.548
lradius 91.5521
lwrist 15.0326
lhand -19.0011 -8.79856
lfingers 7.12502
lthumb 7.30407 21.0554
rfemur -23.6097 0.112591 26.9144
rtibia 53.5967
rfoot -23.8624 -6.44196
rtoes -19.5881
lfemur -25.1183 7.02904 -9.17218
ltibia 90.27
lfoot -3.77051 -6.00186
ltoes -3.82239
121
root -2.98242 16.925 18.9597 3.69909 17.8606 -6.84448
lowerback 12.3969 -0.777843 6.45435
upperback -0.545232 0.313166 4.8
thorax -7.57166 0.0127715 1.41263
lowerneck -26.566 0.367107 -0.756702
upperneck 15.3906 2.35168 -7.07875
head 9.28138 0.199648 -2.00035
rclavicle 5.76476e-015 3.97569e-015
rhumerus -45.2969 5.24827 -84.3828
rradius 89.1926
rwrist 1.68671
rhand -32.1738 8.70678
rfingers 7.12502
rthumb -5.41657 -21.204
lclavicle 5.76476e-015 3.97569e-015
lhumerus -47.4101 -11.9298 100.566
lradius 90.9214
lwrist 13.8926
lhand -18.9312 -9.32976
lfingers 7.12502
lthumb 7.37158 20.5218
rfemur -21.1231 -0.490164 26.9089
rtibia 53.2606
rfoot -25.0302 -5.72364
rtoes -18.8838
lfemur -28.2705 8.34209 -10.0016
ltibia 90.8298
lfoot -5.24119 -5.60096
ltoes -6.1843
122
root -2.87398 16.8995 19.5204 3.48494 18.1488 -7.09905
lowerback 12.5309 -0.615752 6.63605
upperback -0.550615 0.576783 4.86727
thorax -7.64805 0.134158 1.33541
lowerneck -26.6032 0.211643 -0.799606
upperneck 15.4007 2.17094 -7.13501
head 9.28533 0.105445 -2.04151
rclavicle 3.69739e-014 4.21423e-014
rhumerus -44.2951 5.93384 -84.5561
rradius 90.7452
rwrist 0.758971
rhand -32.1454 9.09619
rfingers 7.12502
rthumb -5.38913 -20.8153
lclavicle 3.69739e-014 4.21423e-014
lhumerus -49.2148 -11.4419 100.619
lradius 91.0065
lwrist 13.4719
lhand -18.5675 -9.83702
lfingers 7.12502
lthumb 7.72262 20.002
rfemur -18.4021 -1.19849 27.3555
rtibia 52.5935
rfoot -25.5205 -5.51813
rtoes -20.7666
lfemur -31.0986 9.43789 -10.4193
ltibia 90.958
lfoot -6.61964 -5.58882
ltoes -6.50285
123
root -2.77676 16.8863 20.0823 3.09566 18.7074 -7.72443
lowerback 12.7613 -0.555397 7.08607
upperback -0.588464 0.767677 5.01158
thorax -7.81534 0.209269 1.20645
lowerneck -26.6925 0.0130225 -0.990868
upperneck 15.5484 1.94137 -6.9379
head 9.33859 0.00457503 -1.97949
rclavicle 3.33958e-014 -1.27222e-014
rhumerus -43.6508 6.58955 -84.9127
rradius 92.8901
rwrist -0.714935
rhand -32.4195 9.2214
rfingers 7.12502
rthumb -5.65378 -20.6832
lclavicle 3.33958e-014 -1.27222e-014
lhumerus -51.2834 -11.391 100.736
lradius 91.8498
lwrist 14.0207
lhand -18.2592 -10.0455
lfingers 7.12502
lthumb 8.0202 19.7824
rfemur -15.5191 -1.91079 28.2365
rtibia 51.5857
rfoot -25.5421 -5.25829
rtoes -22.5142
lfemur -33.8688 10.2777 -10.4479
ltibia 90.6426
lfoot -8.31462 -6.0395
ltoes -7.73578
